<?xml version="1.0" encoding="utf-8"?>
<!-- Generator: Adobe Illustrator 22.1.0, SVG Export Plug-In . SVG Version: 6.00 Build 0)  -->
<svg version="1.1" id="Laag_1" xmlns="http://www.w3.org/2000/svg" xmlns:xlink="http://www.w3.org/1999/xlink" x="0px" y="0px"
	 viewBox="0 0 309 113" style="enable-background:new 0 0 309 113;" xml:space="preserve">
<style type="text/css">
	.st0{fill:#D40032;}
</style>
<g>
	<g>
		<path class="st0" d="M14.4,98.2l4.7,1.6c-0.9,1.5-1.9,2.7-3,3.7s-2.3,1.7-3.7,2.3c-1.3,0.5-2.9,0.8-4.6,0.8
			c-2.1,0-3.7-0.3-4.9-0.9c-1.1-0.6-1.9-1.7-2.3-3.3c-0.4-1.6-0.2-3.5,0.7-6c1.2-3.2,2.9-5.7,5.3-7.5c2.4-1.7,5.1-2.6,8.2-2.6
			c2.5,0,4.2,0.5,5.3,1.5c1,1,1.5,2.5,1.5,4.6l-5.8,1.2c0-0.6,0-1-0.1-1.3c-0.2-0.5-0.5-0.8-0.9-1.1c-0.4-0.3-0.9-0.4-1.5-0.4
			c-1.4,0-2.6,0.6-3.8,1.7c-0.8,0.8-1.6,2.1-2.2,3.9c-0.8,2.2-1,3.7-0.6,4.5s1.1,1.2,2.3,1.2s2.1-0.3,3-1
			C12.9,100.3,13.6,99.4,14.4,98.2"/>
	</g>
</g>
<path class="st0" d="M26,86.6h5.4l-1.3,3.7h-5.4L26,86.6z M24,92h5.4l-5.2,14.2h-5.4L24,92z"/>
<g>
	<g>
		<path class="st0" d="M32.3,92h5.1l-0.8,2.3c0.9-1,1.6-1.7,2.3-2.1s1.4-0.6,2.1-0.6c0.8,0,1.6,0.2,2.4,0.7l-3.1,3.9
			c-0.5-0.3-1-0.4-1.4-0.4c-0.7,0-1.4,0.3-2,0.9c-0.9,0.8-1.7,2.4-2.5,4.6l-1.7,4.7h-5.5L32.3,92z"/>
	</g>
	<g>
		<path class="st0" d="M51.6,100.6l4.9,0.6c-0.7,1.1-1.5,2-2.4,2.8s-2,1.4-3.2,1.8s-2.5,0.7-4.1,0.7c-1.5,0-2.7-0.1-3.6-0.4
			c-0.9-0.3-1.6-0.7-2.1-1.4c-0.5-0.6-0.8-1.4-0.9-2.2c-0.1-0.8,0.1-2,0.6-3.4c0.5-1.5,1.2-2.7,2.1-3.6c0.6-0.7,1.4-1.3,2.2-1.9
			s1.6-1,2.4-1.3c1.2-0.4,2.7-0.7,4.3-0.7c2.3,0,3.9,0.4,4.8,1.2c0.9,0.8,1.3,2,1.2,3.6l-5.4,0.7c0.1-0.6-0.1-1.1-0.4-1.4
			c-0.3-0.3-0.8-0.5-1.5-0.5c-0.9,0-1.7,0.3-2.5,1c-0.8,0.6-1.4,1.6-1.9,2.9c-0.4,1.2-0.5,2-0.1,2.6c0.3,0.6,0.9,0.9,1.8,0.9
			c0.7,0,1.4-0.2,2-0.5C50.5,101.9,51.1,101.4,51.6,100.6"/>
	</g>
	<g>
		<path class="st0" d="M71.5,106.2h-5.1l0.8-2.3c-1.1,0.9-2.1,1.6-3,2s-1.9,0.6-3.1,0.6c-1.5,0-2.5-0.4-3-1.3s-0.4-2.3,0.2-4.1
			l3.3-9h5.5l-2.8,7.8c-0.3,0.9-0.4,1.5-0.2,1.9c0.2,0.4,0.6,0.6,1.2,0.6s1.3-0.2,1.9-0.7s1.1-1.4,1.6-2.7l2.5-6.8h5.4L71.5,106.2z"
			/>
	</g>
</g>
<path class="st0" d="M81.4,86.6h5.4l-1.3,3.7h-5.4L81.4,86.6z M79.5,92h5.4l-5.2,14.2h-5.4L79.5,92z"/>
<g>
	<g>
		<path class="st0" d="M96.2,86.6l-2,5.4h3l-1.4,4h-3l-1.8,5c-0.2,0.6-0.3,1-0.3,1.2c0.1,0.3,0.3,0.5,0.8,0.5c0.4,0,1-0.1,1.8-0.3
			l-1,3.7c-1.4,0.3-2.8,0.4-3.9,0.4c-1.4,0-2.3-0.2-2.8-0.5s-0.8-0.9-0.8-1.6c-0.1-0.7,0.2-1.8,0.8-3.4l1.8-5h-2l1.4-4h2l0.9-2.6
			L96.2,86.6z"/>
	</g>
	<g>
		<path class="st0" d="M112.9,94.9h1.5c1.2,0,2.1-0.2,2.7-0.6s1-0.9,1.3-1.6c0.2-0.6,0.2-1.1,0-1.6c-0.3-0.4-0.9-0.6-2.1-0.6h-1.7
			L112.9,94.9z M109.9,86.6h10c2.2,0,3.6,0.5,4.3,1.6c0.7,1,0.7,2.5,0,4.4c-0.7,2-1.9,3.5-3.5,4.6s-3.6,1.7-6,1.7h-3.3l-2.6,7.3
			h-6.1L109.9,86.6z"/>
	</g>
	<g>
		<path class="st0" d="M133.1,99.4c-0.8,0.3-1.7,0.5-2.6,0.7c-1.2,0.3-2,0.6-2.4,0.9c-0.4,0.3-0.7,0.6-0.8,1c-0.2,0.4-0.1,0.8,0.1,1
			c0.2,0.3,0.6,0.4,1.2,0.4s1.2-0.1,1.8-0.4s1.1-0.7,1.5-1.1s0.7-1,0.9-1.6L133.1,99.4z M129.4,96.6l-5-0.5c0.5-0.9,1.1-1.6,1.6-2.1
			c0.6-0.5,1.3-1,2.1-1.4c0.6-0.3,1.4-0.5,2.3-0.6c0.9-0.2,1.9-0.2,2.9-0.2c1.6,0,2.9,0.1,3.8,0.3c0.9,0.2,1.6,0.6,2.1,1.1
			c0.3,0.4,0.5,1,0.5,1.7s-0.1,1.4-0.4,2.1l-2.3,6.3c-0.2,0.7-0.4,1.2-0.4,1.6c-0.1,0.4,0,0.9,0,1.4h-5.1c-0.1-0.4-0.1-0.6-0.1-0.8
			c0-0.2,0.1-0.5,0.1-0.9c-1,0.7-1.8,1.2-2.7,1.5c-1.1,0.4-2.3,0.6-3.6,0.6c-1.7,0-2.8-0.4-3.4-1.2c-0.6-0.8-0.7-1.7-0.3-2.9
			c0.4-1.1,1-2,1.9-2.7s2.2-1.2,4.1-1.5c2.2-0.4,3.6-0.7,4.3-0.9c0.7-0.2,1.4-0.4,2.2-0.6c0.2-0.7,0.3-1.1,0.1-1.4s-0.6-0.4-1.3-0.4
			c-0.9,0-1.6,0.1-2.2,0.4C130.3,95.6,129.9,96,129.4,96.6"/>
	</g>
	<g>
		<path class="st0" d="M143.8,92h5.1l-0.8,2.3c0.9-1,1.6-1.7,2.3-2.1s1.4-0.6,2.1-0.6c0.8,0,1.6,0.2,2.4,0.7l-3.1,3.9
			c-0.5-0.3-1-0.4-1.4-0.4c-0.7,0-1.4,0.3-2,0.9c-0.9,0.8-1.7,2.4-2.5,4.6l-1.7,4.7h-5.5L143.8,92z"/>
	</g>
</g>
<polygon class="st0" points="158,86.6 163.6,86.6 159.9,96.7 165.6,92 172.3,92 165.4,97 167.5,106.2 161.3,106.2 160.5,100.5 
	157.8,102.5 156.4,106.2 150.9,106.2 "/>
<g>
	<g>
		<path class="st0" d="M187.7,94.3h2.6c0.9,0,1.7-0.2,2.1-0.5c0.5-0.3,0.8-0.8,1.1-1.4c0.2-0.6,0.2-1-0.1-1.3s-0.8-0.5-1.8-0.5H189
			L187.7,94.3z M184.9,102h3.1c1,0,1.8-0.2,2.4-0.6c0.6-0.4,1-0.9,1.2-1.5s0.2-1-0.1-1.4c-0.3-0.3-1-0.5-2-0.5h-3.1L184.9,102z
			 M184.4,86.6h11.3c1.9,0,3.2,0.5,3.8,1.4c0.7,0.9,0.8,2.1,0.3,3.5c-0.4,1.2-1.1,2.1-2.2,3c-0.7,0.6-1.5,1-2.6,1.3
			c1.3,0.3,2.1,0.9,2.5,1.7c0.4,0.8,0.3,1.9-0.1,3.1c-0.4,1-0.9,1.9-1.7,2.7c-0.8,0.8-1.6,1.4-2.6,1.9c-0.6,0.3-1.5,0.5-2.5,0.6
			c-1.4,0.2-2.4,0.3-2.8,0.3h-10.4L184.4,86.6z"/>
	</g>
	<g>
		<path class="st0" d="M210.7,97.8c0.3-1.1,0.3-1.8,0-2.3s-0.8-0.7-1.6-0.7c-0.9,0-1.7,0.3-2.4,1c-0.5,0.4-0.9,1.1-1.3,1.9
			L210.7,97.8L210.7,97.8z M215.3,100.4h-10.9c-0.2,0.9-0.2,1.5,0,1.9c0.3,0.6,0.9,0.9,1.7,0.9c0.5,0,1.1-0.1,1.7-0.4
			c0.4-0.2,0.8-0.5,1.3-0.9l5.2,0.5c-1.3,1.4-2.7,2.4-4.1,3.1c-1.4,0.6-3.2,0.9-5.3,0.9c-1.9,0-3.3-0.3-4.1-0.8
			c-0.9-0.5-1.5-1.4-1.8-2.5c-0.3-1.2-0.1-2.5,0.4-4.1c0.8-2.2,2.2-4,4.1-5.4c1.9-1.4,4.1-2.1,6.6-2.1c2,0,3.5,0.3,4.5,0.9
			s1.5,1.5,1.7,2.7s-0.1,2.7-0.7,4.5L215.3,100.4z"/>
	</g>
	<g>
		<path class="st0" d="M220.2,92h5.1l-0.8,2.3c0.9-1,1.6-1.7,2.3-2.1s1.4-0.6,2.1-0.6c0.8,0,1.6,0.2,2.4,0.7l-3.1,3.9
			c-0.5-0.3-1-0.4-1.4-0.4c-0.7,0-1.4,0.3-2,0.9c-0.9,0.8-1.7,2.4-2.5,4.6l-1.7,4.7h-5.5L220.2,92z"/>
	</g>
	<g>
		<path class="st0" d="M234.5,98.9c-0.4,1-0.4,1.8-0.2,2.3c0.3,0.5,0.7,0.7,1.5,0.7c0.7,0,1.3-0.3,2-0.8c0.6-0.5,1.2-1.3,1.5-2.3
			c0.4-1,0.4-1.8,0.1-2.4c-0.3-0.5-0.8-0.8-1.5-0.8s-1.3,0.2-1.9,0.8C235.5,96.9,235,97.7,234.5,98.9 M242.1,92h5.1l-4.9,13.4
			l-0.2,0.6c-0.3,0.9-0.8,1.7-1.5,2.5s-1.4,1.5-2.2,2s-1.7,0.9-2.8,1.1c-1,0.2-2.2,0.3-3.4,0.3c-2.8,0-4.6-0.4-5.4-1.3
			c-0.8-0.9-0.9-2-0.3-3.4c0.1-0.2,0.2-0.4,0.3-0.7l5.1,0.6c0,0.5,0,0.8,0.2,1c0.3,0.3,0.8,0.4,1.4,0.4c0.8,0,1.4-0.2,2-0.6
			c0.5-0.4,1-1.1,1.4-2.2l0.8-2.1c-0.8,0.6-1.5,1.1-2.1,1.4c-1,0.4-2,0.7-2.9,0.7c-1.9,0-3.1-0.8-3.7-2.5c-0.4-1.2-0.2-2.7,0.5-4.7
			c0.8-2.2,1.9-3.9,3.4-5c1.5-1.2,3.1-1.7,4.8-1.7c1.1,0,1.9,0.2,2.5,0.6s1,1,1.3,1.9L242.1,92z"/>
	</g>
	<g>
		<path class="st0" d="M251.8,86.6h5.4l-2.6,7.2c1-0.8,1.9-1.3,2.8-1.6c0.8-0.3,1.8-0.5,2.8-0.5c1.5,0,2.5,0.4,3,1.3
			s0.4,2.3-0.2,4.1l-3.3,9h-5.5l2.8-7.8c0.3-0.9,0.4-1.5,0.2-1.9c-0.2-0.4-0.6-0.6-1.2-0.6c-0.7,0-1.3,0.2-1.9,0.7
			c-0.6,0.5-1.1,1.4-1.6,2.7L250,106h-5.4L251.8,86.6z"/>
	</g>
	<g>
		<path class="st0" d="M275.5,97.8c0.3-1.1,0.3-1.8,0-2.3s-0.8-0.7-1.6-0.7c-0.9,0-1.7,0.3-2.4,1c-0.5,0.4-0.9,1.1-1.3,1.9
			L275.5,97.8L275.5,97.8z M280.1,100.4h-10.9c-0.2,0.9-0.2,1.5,0,1.9c0.3,0.6,0.9,0.9,1.7,0.9c0.5,0,1.1-0.1,1.7-0.4
			c0.4-0.2,0.8-0.5,1.3-0.9l5.2,0.5c-1.3,1.4-2.7,2.4-4.1,3.1c-1.4,0.6-3.2,0.9-5.3,0.9c-1.9,0-3.3-0.3-4.1-0.8
			c-0.9-0.5-1.5-1.4-1.8-2.5c-0.3-1.2-0.2-2.5,0.4-4.1c0.8-2.2,2.2-4,4.1-5.4s4.1-2.1,6.6-2.1c2,0,3.5,0.3,4.5,0.9s1.5,1.5,1.7,2.7
			s-0.1,2.7-0.7,4.5L280.1,100.4z"/>
	</g>
	<g>
		<path class="st0" d="M285,92h5.1l-0.8,2.1c1-0.9,2-1.5,2.9-1.8c0.9-0.4,1.8-0.5,2.9-0.5s2,0.2,2.5,0.6s0.8,1,1,1.8
			c1.2-0.9,2.2-1.6,3-1.9s1.8-0.5,2.8-0.5c1.5,0,2.5,0.4,3.1,1.4c0.5,0.9,0.4,2.3-0.3,4.2l-3.2,8.9h-5.4l2.9-8.1
			c0.2-0.6,0.3-1.1,0.1-1.4c-0.2-0.5-0.5-0.7-1.1-0.7s-1.2,0.2-1.8,0.7c-0.6,0.5-1,1.2-1.4,2.2l-2.7,7.3h-5.4l2.8-7.8
			c0.2-0.6,0.3-1,0.4-1.3c0-0.4-0.1-0.6-0.3-0.9c-0.2-0.2-0.5-0.3-0.9-0.3c-0.6,0-1.2,0.2-1.8,0.7c-0.6,0.5-1.1,1.2-1.4,2.3
			l-2.6,7.2H280L285,92z"/>
	</g>
	<g>
		<path class="st0" d="M119.2,61.4L119.2,61.4l1-2.7l0,0L119.2,61.4z"/>
	</g>
</g>
<polygon class="st0" points="113.5,77.1 141.2,77.1 142.7,72.8 115,72.8 "/>
<g>
	<g>
		<path class="st0" d="M53.5,73.5C58.8,75.8,66.3,77,76,77c8,0,14.9-1,20.8-2.9c1.2-0.4,2.3-0.8,3.4-1.3h-48
			C52.7,73.1,53.1,73.3,53.5,73.5"/>
	</g>
	<g>
		<path class="st0" d="M258.4,23.3c-0.9,2.3-2.3,4.1-4.5,5.4c-2.1,1.2-5.4,1.9-9.7,1.9h-12l5.1-14.1h12.2c4.2,0,6.9,0.6,8.1,1.8
			C259,19.5,259.2,21.1,258.4,23.3 M251.9,50.2c0,0.6-0.2,1.1-0.4,1.8c-0.3,0.7-0.6,1.3-1,1.9c-0.5,0.7-1,1.4-1.6,2l0,0
			c-0.7,0.6-1.5,1.2-2.4,1.7c-0.1,0.1-0.3,0.2-0.5,0.2c-2.4,1.2-5.9,1.9-10.4,1.9h-14.1l0.7-1.9l0.7-2l0,0l0.7-2l1.4-3.7l0.7-2l0,0
			l0.7-2l0.6-1.6h14c4.3,0,7.3,0.5,8.9,1.6c0.2,0.1,0.4,0.3,0.5,0.4c0.5,0.5,0.9,1,1.1,1.6l0,0C251.9,48.8,252,49.5,251.9,50.2
			 M119.2,61.4L119.2,61.4h-1.6l0,0c0.9-0.9,1.7-1.8,2.6-2.7l0,0l0,0L119.2,61.4z M130.2,31.1H74.6c1.8-3.2,3.7-5.7,5.9-7.6
			c4.9-4.2,10.4-6.3,16.7-6.3c2.8,0,5.1,0.5,7,1.4s3.3,2.3,4.2,4.1c0.6,1,0.8,2.7,0.9,5l23.8-4.1L130.2,31.1z M284.6,6.7
			c-3.3-3.6-9.3-5.3-17.9-5.3h-51.6l-4.9,13.5c-0.2-3-1.1-5.5-3-7.6c-3.5-4-10.3-5.9-20.3-5.9h-45.8l-6.3,17.4c-1-5.6-3.5-10-7.5-13
			C122.2,2,114,0.1,102.8,0.1c-14.4,0-26.7,3.3-36.9,9.9C57.8,15.2,51.5,22.3,47,31.1H25.2l-0.7,2h21.4h27.7h55.9h27.7l0.1-0.4
			l0.6-1.6l5.3-14.7h7.9c5.2,0,8.4,0.8,9.6,2.4c1.3,1.6,1.5,3.6,0.6,5.9c-0.9,2.4-2.7,4.4-5.4,5.9c-0.2,0.1-0.5,0.2-0.7,0.4
			c-2.6,1.2-6.2,1.9-10.9,1.9l0,0h39.1h0.1l0,0c-0.1,0.1-0.2,0.2-0.2,0.3l-0.6,1.7l-1.3,3.6h-3.2c1.3-1.1,2.6-2.3,3.7-3.6h-73.3
			l-1.3,3.6h-56c0.1-0.1,0.1-0.3,0.1-0.4c0.4-1.1,0.8-2.1,1.3-3.1H45c-0.5,1.1-0.9,2.2-1.3,3.3c0,0.1-0.1,0.2-0.1,0.3H22.4l-0.7,2
			H43h27.6h56.2h69h5.1l0,0l-0.7,2l-1.3,3.7H183c3.5-0.9,6.7-2.1,9.5-3.7H126l-1.3,3.7h-17.3h-4.2H69.1c0.2-1.1,0.5-2.4,0.9-3.7
			H42.4c-0.4,1.3-0.7,2.5-0.9,3.7H19.7l-0.7,2h22.2h27.7h33h12.6h9.5h27.7H198l0,0l-0.7,2l-1.4,3.7h-46.3l1.4-3.7h-50.7
			c-1.1,1.4-2.3,2.6-3.6,3.7H69.2c-0.4-1-0.5-2.3-0.5-3.7H40.9c-0.1,1.3-0.2,2.5-0.1,3.7H16.9l-0.7,2h24.7h29.4h24h27h1.3H149h46.3
			l0,0l-0.7,2l-1.3,3.6H147l1.3-3.6H121h-0.4H90.7c-2.9,1.2-6.2,1.9-9.9,1.9c-3.5,0-6.2-0.6-8.2-1.9H41.2c0.2,1.1,0.5,2.2,0.9,3.2
			c0.1,0.1,0.1,0.2,0.2,0.4H14.1l-0.7,2h29.8h72.3h3h27.7h46.3l0,0l-0.7,2l-1.3,3.5h-46.3l1.3-3.5h-27.7l-1.3,3.5h-8.4
			c1.7-1,3.3-2.1,4.9-3.4c0.1,0,0.1-0.1,0.2-0.1H44.3c0.8,1.3,1.7,2.5,2.7,3.5H11.4l-0.7,2h38.5h55.4h11.2h27.7h46.3l0,0l-2.3,6.3
			h47.8c4-0.1,7.9-0.4,12.4-1.2c4-0.7,7.6-1.5,10.2-2.3c0.5-0.2,1.1-0.4,1.6-0.6c1-0.4,1.9-0.8,2.9-1.3c5.4-2.7,19.6-11.2,17-25.1
			c0-0.1,0-0.2-0.1-0.3c-0.1-0.5-0.2-1.1-0.4-1.6c0,0,0,0,0-0.1l0,0c-0.2-0.7-0.5-1.3-0.9-1.9c0-0.1-0.1-0.1-0.1-0.2
			c-0.4-0.7-1-1.4-1.6-2l0,0c-0.8-0.7-1.7-1.4-2.8-2c-1.9-1-4.3-1.9-7.1-2.5c1.3-0.3,2.5-0.7,3.6-1.1c1.7-0.6,3.2-1.2,4.6-2l0,0
			c1.1-0.6,2.2-1.2,3.2-1.9c0,0,0.1,0,0.1-0.1c4.4-3.1,7.4-6.9,9-11.3C288.6,14.6,287.9,10.2,284.6,6.7"/>
	</g>
	<g>
		<path class="st0" d="M120.2,58.8c-0.8,0.9-1.7,1.8-2.6,2.7l0,0C118.5,60.6,119.3,59.7,120.2,58.8L120.2,58.8z"/>
	</g>
</g>
</svg>
